<svg id="Layer_1" data-name="Layer 1" xmlns="http://www.w3.org/2000/svg" viewBox="0 0 125 125"><defs><style>.cls-1{fill:#f27d7e;}.cls-2{fill:#4dc1bd;}.cls-3{fill:#5c72b6;}.cls-4{fill:#ffca1a;}.cls-5{fill:#28b24b;}</style></defs><rect class="cls-1" x="38.01" y="16.76" width="22.4" height="149.31" rx="11.2" transform="translate(-28.3 22.34) rotate(-20)"/><rect class="cls-2" x="2.92" y="17.62" width="22.4" height="85.75" rx="11.2" transform="translate(26.89 -0.3) rotate(25)"/><path class="cls-3" d="M37.6,26.94c-.08-.16-.17-.31-.25-.46s-.18-.34-.28-.5-.21-.33-.32-.49l-.29-.42c-.11-.15-.24-.3-.36-.44s-.22-.28-.34-.41-.25-.25-.38-.38-.26-.27-.4-.39-.27-.22-.41-.33a5.46,5.46,0,0,0-.45-.36c-.15-.12-.32-.22-.48-.33l-.43-.28c-.3-.17-.61-.34-.93-.49l-.1-.05c-.32-.14-.64-.27-1-.39-.16-.06-.33-.1-.5-.15l-.55-.16c-.19-.05-.39-.08-.58-.12l-.49-.09-.59-.06-.51,0c-.18,0-.37,0-.56,0H26.9l-.56.05c-.18,0-.36,0-.53.06s-.43.08-.65.13l-.43.09c-.35.09-.71.2-1.06.32h0c-.35.13-.69.28-1,.44l-.38.2-.59.32-.43.29-.47.32-.41.33-.44.38-.35.34c-.14.15-.29.29-.42.44a3.72,3.72,0,0,0-.3.37c-.13.15-.27.31-.39.48s-.2.29-.29.44-.22.31-.31.47-.3.54-.44.82A11.19,11.19,0,0,0,17,35.62L26.23,61l11.42-24.5A11.18,11.18,0,0,0,38,27.87Q37.81,27.39,37.6,26.94Z"/><rect class="cls-3" x="-10.47" y="78" width="22.4" height="22.4" rx="11.2" transform="translate(37.77 8.05) rotate(25)"/><rect class="cls-4" x="64.6" y="-41.07" width="22.4" height="149.31" rx="11.2" transform="translate(158.5 39.22) rotate(160)"/><rect class="cls-2" x="99.69" y="21.63" width="22.4" height="85.75" rx="11.2" transform="translate(184.12 169.83) rotate(-155)"/><path class="cls-5" d="M108,89.38,98.77,64,87.35,88.48A11.18,11.18,0,0,0,87,97.13q.18.48.39.93c.08.16.17.31.25.46s.18.34.28.5.21.33.32.49l.29.42c.11.15.24.3.36.44s.22.28.34.41l.38.38c.13.13.26.27.4.39s.27.22.41.33.29.25.44.36.33.22.49.33l.43.28c.3.17.62.34.94.5l.11,0c.31.15.63.27,1,.39.17.06.34.1.51.15l.54.16c.19,0,.39.08.59.12l.48.09.59.06.51,0H98.1l.57,0c.17,0,.35,0,.52-.06s.44-.08.66-.13l.42-.09c.35-.09.71-.2,1.06-.32h0c.35-.13.69-.28,1-.44l.38-.2.59-.32.43-.29.47-.32.41-.33.44-.38.35-.34c.14-.15.29-.29.42-.44a3.72,3.72,0,0,0,.3-.37c.13-.15.27-.31.39-.48s.2-.29.29-.44.22-.31.31-.47.3-.54.44-.82A11.19,11.19,0,0,0,108,89.38Z"/><rect class="cls-5" x="113.07" y="24.6" width="22.4" height="22.4" rx="11.2" transform="translate(221.77 120.76) rotate(-155)"/></svg>